<svg width="81" height="64" viewBox="0 0 81 64" fill="none" xmlns="http://www.w3.org/2000/svg">
<path d="M78.1071 0H2.89286C1.29275 0 0 1.29275 0 2.89286V60.75C0 62.3501 1.29275 63.6429 2.89286 63.6429H78.1071C79.7073 63.6429 81 62.3501 81 60.75V2.89286C81 1.29275 79.7073 0 78.1071 0ZM6.50893 6.50893H74.4911V17.3571H6.50893V6.50893ZM74.4911 57.1339H6.50893V25.3125H74.4911V57.1339ZM53.0658 51.3482H67.9821C68.3799 51.3482 68.7054 51.0228 68.7054 50.625V44.1161C68.7054 43.7183 68.3799 43.3929 67.9821 43.3929H53.0658C52.6681 43.3929 52.3426 43.7183 52.3426 44.1161V50.625C52.3426 51.0228 52.6681 51.3482 53.0658 51.3482Z" fill="black"/>
</svg>
