<svg width="52" height="65" viewBox="0 0 52 65" fill="none" xmlns="http://www.w3.org/2000/svg">
<path d="M0 7.3125C0 5.3731 0.770423 3.51314 2.14178 2.14178C3.51314 0.770422 5.3731 0 7.3125 0H21.138V15.431C21.138 16.3913 21.3271 17.3422 21.6946 18.2294C22.0621 19.1166 22.6008 19.9227 23.2798 20.6017C24.6511 21.9731 26.5111 22.7435 28.4505 22.7435H43.875V49.5625C43.875 51.5019 43.1046 53.3619 41.7332 54.7332C40.3619 56.1046 38.5019 56.875 36.5625 56.875H7.3125C5.3731 56.875 3.51314 56.1046 2.14178 54.7332C0.770423 53.3619 0 51.5019 0 49.5625V7.3125ZM12.1875 30.875C11.541 30.875 10.921 31.1318 10.4639 31.5889C10.0068 32.046 9.75 32.666 9.75 33.3125C9.75 33.959 10.0068 34.579 10.4639 35.0361C10.921 35.4932 11.541 35.75 12.1875 35.75C12.834 35.75 13.454 35.4932 13.9111 35.0361C14.3682 34.579 14.625 33.959 14.625 33.3125C14.625 32.666 14.3682 32.046 13.9111 31.5889C13.454 31.1318 12.834 30.875 12.1875 30.875ZM9.75 43.0625C9.75 43.709 10.0068 44.329 10.4639 44.7861C10.921 45.2432 11.541 45.5 12.1875 45.5C12.834 45.5 13.454 45.2432 13.9111 44.7861C14.3682 44.329 14.625 43.709 14.625 43.0625C14.625 42.416 14.3682 41.796 13.9111 41.3389C13.454 40.8818 12.834 40.625 12.1875 40.625C11.541 40.625 10.921 40.8818 10.4639 41.3389C10.0068 41.796 9.75 42.416 9.75 43.0625ZM19.5 33.3125C19.5 34.658 20.592 35.75 21.9375 35.75H31.863C32.5095 35.75 33.1295 35.4932 33.5866 35.0361C34.0437 34.579 34.3005 33.959 34.3005 33.3125C34.3005 32.666 34.0437 32.046 33.5866 31.5889C33.1295 31.1318 32.5095 30.875 31.863 30.875H21.9375C21.291 30.875 20.671 31.1318 20.2139 31.5889C19.7568 32.046 19.5 32.666 19.5 33.3125ZM21.9375 40.625C21.291 40.625 20.671 40.8818 20.2139 41.3389C19.7568 41.796 19.5 42.416 19.5 43.0625C19.5 43.709 19.7568 44.329 20.2139 44.7861C20.671 45.2432 21.291 45.5 21.9375 45.5H31.863C32.5095 45.5 33.1295 45.2432 33.5866 44.7861C34.0437 44.329 34.3005 43.709 34.3005 43.0625C34.3005 42.416 34.0437 41.796 33.5866 41.3389C33.1295 40.8818 32.5095 40.625 31.863 40.625H21.9375ZM26.013 15.431V1.521C26.26 1.7095 26.5005 1.9175 26.7215 2.14175L41.7332 17.1535C41.9608 17.381 42.1688 17.6182 42.3605 17.8685H28.4505C27.804 17.8685 27.184 17.6117 26.7269 17.1546C26.2698 16.6975 26.013 16.0775 26.013 15.431ZM8.54425 60.125C9.04825 61.5505 9.98176 62.7848 11.2162 63.6578C12.4507 64.5309 13.9255 64.9998 15.4375 65H36.5625C38.5898 65 40.5972 64.6007 42.4702 63.8249C44.3431 63.0491 46.045 61.912 47.4785 60.4785C48.912 59.045 50.0491 57.3431 50.8249 55.4702C51.6007 53.5972 52 51.5898 52 49.5625V30.4493C51.9996 29.4887 51.8099 28.5377 51.4419 27.6505C51.0738 26.7633 50.5346 25.9573 49.855 25.2785L47.125 22.5452V49.5625C47.125 52.3638 46.0122 55.0505 44.0313 57.0313C42.0505 59.0122 39.3638 60.125 36.5625 60.125H8.54425Z" fill="black"/>
</svg>
