<svg width="60" height="73" viewBox="0 0 60 73" fill="none" xmlns="http://www.w3.org/2000/svg">
<path d="M4 10.5V62.5C4 64.2239 4.68482 65.8772 5.90381 67.0962C7.12279 68.3152 8.77609 69 10.5 69H49.5C51.2239 69 52.8772 68.3152 54.0962 67.0962C55.3152 65.8772 56 64.2239 56 62.5V24.6115C55.9999 23.7456 55.8268 22.8884 55.4908 22.0903C55.1548 21.2922 54.6628 20.5693 54.0435 19.964L39.6135 5.8525C38.3992 4.66514 36.7684 4.00021 35.07 4H10.5C8.77609 4 7.12279 4.68482 5.90381 5.90381C4.68482 7.12279 4 8.77609 4 10.5V10.5Z" stroke="black" stroke-width="8" stroke-linecap="round" stroke-linejoin="round"/>
<path d="M36.5 4V17C36.5 18.7239 37.1848 20.3772 38.4038 21.5962C39.6228 22.8152 41.2761 23.5 43 23.5H56" stroke="black" stroke-width="8" stroke-linejoin="round"/>
</svg>
